<?xml version="1.0" encoding="UTF-8" standalone="no"?>
<svg width="43px" height="37px" viewBox="0 0 43 37" version="1.1" xmlns="http://www.w3.org/2000/svg" xmlns:xlink="http://www.w3.org/1999/xlink">
    <!-- Generator: Sketch 3.8.3 (29802) - http://www.bohemiancoding.com/sketch -->
    <title>Group</title>
    <desc>Created with Sketch.</desc>
    <defs></defs>
    <g id="Page-1" stroke="none" stroke-width="1" fill="none" fill-rule="evenodd">
        <g id="Artboard-15" transform="translate(-319.000000, -245.000000)">
            <g id="Group" transform="translate(319.000000, 245.000000)">
                <path d="M18.1340119,6.04467064 L24.1786826,6.04467064 L24.1786826,0 L36.2680239,0 L36.2680239,6.04467064 L42.3126945,6.04467064 L42.3126945,18.1340119 L0,18.1340119 L0,6.04467064 L6.04467064,6.04467064 L6.04467064,0 L18.1340119,0 L18.1340119,6.04467064 Z M6.04467064,18.1340119 L36.2680239,18.1340119 L36.2680239,24.1786826 L6.04467064,24.1786826 L6.04467064,18.1340119 Z M12.0893413,24.1786826 L30.2233532,24.1786826 L30.2233532,30.2233532 L12.0893413,30.2233532 L12.0893413,24.1786826 Z M18.1340119,30.2233532 L24.1786826,30.2233532 L24.1786826,36.2680239 L18.1340119,36.2680239 L18.1340119,30.2233532 Z" id="Combined-Shape" fill="#E65858"></path>
                <path d="M8.02233532,8.02233532 L11.0223353,8.02233532 L11.0223353,5 L8,5 L8,8 L5,8 L5,11.0223353 L8.02233532,11.0223353 L8.02233532,8.02233532 Z M11.0446706,5 L14.067006,5 L14.067006,8.02233532 L11.0446706,8.02233532 L11.0446706,5 Z M8.02233532,8.02233532 L11.0446706,8.02233532 L11.0446706,11.0446706 L8.02233532,11.0446706 L8.02233532,8.02233532 Z M5,11.0446706 L8.02233532,11.0446706 L8.02233532,14.067006 L5,14.067006 L5,11.0446706 Z" id="Combined-Shape" fill="#FA9696"></path>
            </g>
        </g>
    </g>
</svg>